<svg width="350" height="150" viewBox="0 0 350 150" fill="none" xmlns="http://www.w3.org/2000/svg">
<path d="M96.6373 120.72C95.8373 120.72 95.0773 120.48 94.3573 120C93.7173 119.52 93.2773 118.92 93.0373 118.2L68.1973 44.76C67.9573 44.04 67.8373 43.36 67.8373 42.72C67.8373 41.68 68.1573 40.84 68.7973 40.2C69.5173 39.48 70.4773 39.12 71.6773 39.12C72.3973 39.12 73.0773 39.36 73.7173 39.84C74.4373 40.32 74.9573 40.92 75.2773 41.64L96.9973 105.84L122.317 41.4C123.037 39.88 124.237 39.12 125.917 39.12C127.037 39.12 127.917 39.48 128.557 40.2C129.277 40.92 129.637 41.76 129.637 42.72C129.637 43.28 129.557 43.8 129.397 44.28L100.237 118.32C99.5973 119.92 98.3973 120.72 96.6373 120.72ZM163.373 120.72C156.253 120.72 150.173 119.2 145.133 116.16C140.173 113.04 136.693 109 134.693 104.04C134.213 103.24 133.973 102.44 133.973 101.64C133.973 100.52 134.373 99.6 135.173 98.88C135.973 98.08 136.933 97.68 138.053 97.68C140.053 97.68 141.373 98.72 142.013 100.8C143.373 104.56 146.013 107.64 149.933 110.04C153.933 112.36 158.413 113.52 163.373 113.52C167.293 113.52 170.773 112.84 173.813 111.48C176.933 110.12 179.333 108.28 181.013 105.96C182.773 103.64 183.653 101.04 183.653 98.16C183.653 94.48 182.133 91.28 179.093 88.56C176.053 85.84 170.893 83.48 163.613 81.48C146.893 76.92 138.533 69.48 138.533 59.16C138.533 55.24 139.613 51.76 141.773 48.72C144.013 45.68 147.213 43.28 151.373 41.52C155.613 39.76 160.533 38.88 166.133 38.88C174.053 38.88 180.213 40.4 184.613 43.44C189.013 46.4 191.213 50.4 191.213 55.44C191.213 56.48 190.853 57.4 190.133 58.2C189.413 58.92 188.533 59.28 187.493 59.28C186.533 59.28 185.693 58.96 184.973 58.32C184.333 57.68 183.973 56.92 183.893 56.04C183.493 53 181.653 50.52 178.373 48.6C175.173 46.68 170.973 45.72 165.773 45.72C159.533 45.72 154.693 46.88 151.253 49.2C147.893 51.52 146.213 54.72 146.213 58.8C146.213 62.24 147.773 65.16 150.893 67.56C154.093 69.96 158.973 72.08 165.533 73.92C174.173 76.32 180.613 79.48 184.853 83.4C189.173 87.24 191.333 91.96 191.333 97.56C191.333 101.88 190.053 105.84 187.493 109.44C184.933 112.96 181.493 115.72 177.173 117.72C172.853 119.72 168.253 120.72 163.373 120.72ZM238.824 120.84C232.264 120.84 226.184 119.2 220.584 115.92C215.064 112.56 210.664 107.88 207.384 101.88C204.184 95.8 202.584 88.84 202.584 81C202.584 74.2 204.184 67.56 207.384 61.08C210.584 54.52 215.064 49.16 220.824 45C226.664 40.84 233.304 38.76 240.744 38.76C247.624 38.76 253.424 40.2 258.144 43.08C262.944 45.88 266.544 49.12 268.944 52.8C271.344 56.48 272.544 59.4 272.544 61.56C272.544 62.6 272.184 63.44 271.464 64.08C270.824 64.64 269.944 64.92 268.824 64.92C268.024 64.92 267.264 64.72 266.544 64.32C265.904 63.84 265.424 63.2 265.104 62.4C263.424 57.92 260.584 54.16 256.584 51.12C252.664 48 247.384 46.44 240.744 46.44C233.864 46.44 228.144 48.44 223.584 52.44C219.024 56.44 215.664 61.16 213.504 66.6C211.424 71.96 210.384 76.76 210.384 81C210.384 87.56 211.664 93.28 214.224 98.16C216.864 102.96 220.344 106.68 224.664 109.32C229.064 111.88 233.784 113.16 238.824 113.16C245.384 113.16 251.024 111.32 255.744 107.64C260.544 103.88 263.784 98.8 265.464 92.4H262.344C258.264 92.4 254.144 92.92 249.984 93.96C248.384 94.28 247.464 94.44 247.224 94.44C246.184 94.44 245.304 94.08 244.584 93.36C243.864 92.64 243.504 91.72 243.504 90.6C243.504 89.8 243.704 89.08 244.104 88.44C244.584 87.72 245.264 87.2 246.144 86.88C247.904 86.24 250.344 85.72 253.464 85.32C256.584 84.92 259.664 84.72 262.704 84.72C267.984 84.72 272.384 85.4 275.904 86.76C277.504 87.24 278.304 88.44 278.304 90.36C278.304 91.4 277.944 92.28 277.224 93C276.584 93.64 275.784 94 274.824 94.08C274.264 94.08 273.664 93.96 273.024 93.72C271.104 101.64 267.144 108.16 261.144 113.28C255.144 118.32 247.704 120.84 238.824 120.84Z" fill="black"/>
</svg>
