<svg width="640" height="200" viewBox="0 0 640 200" fill="none" xmlns="http://www.w3.org/2000/svg">
<path d="M258.519 148.6C252.585 148.6 247.519 147.333 243.319 144.8C239.185 142.2 236.285 138.833 234.619 134.7C234.219 134.033 234.019 133.367 234.019 132.7C234.019 131.767 234.352 131 235.019 130.4C235.685 129.733 236.485 129.4 237.419 129.4C239.085 129.4 240.185 130.267 240.719 132C241.852 135.133 244.052 137.7 247.319 139.7C250.652 141.633 254.385 142.6 258.519 142.6C261.785 142.6 264.685 142.033 267.219 140.9C269.819 139.767 271.819 138.233 273.219 136.3C274.685 134.367 275.419 132.2 275.419 129.8C275.419 126.733 274.152 124.067 271.619 121.8C269.085 119.533 264.785 117.567 258.719 115.9C244.785 112.1 237.819 105.9 237.819 97.3C237.819 94.0333 238.719 91.1333 240.519 88.6C242.385 86.0667 245.052 84.0667 248.519 82.6C252.052 81.1333 256.152 80.4 260.819 80.4C267.419 80.4 272.552 81.6667 276.219 84.2C279.885 86.6667 281.719 90 281.719 94.2C281.719 95.0667 281.419 95.8333 280.819 96.5C280.219 97.1 279.485 97.4 278.619 97.4C277.819 97.4 277.119 97.1333 276.519 96.6C275.985 96.0667 275.685 95.4333 275.619 94.7C275.285 92.1667 273.752 90.1 271.019 88.5C268.352 86.9 264.852 86.1 260.519 86.1C255.319 86.1 251.285 87.0667 248.419 89C245.619 90.9333 244.219 93.6 244.219 97C244.219 99.8667 245.519 102.3 248.119 104.3C250.785 106.3 254.852 108.067 260.319 109.6C267.519 111.6 272.885 114.233 276.419 117.5C280.019 120.7 281.819 124.633 281.819 129.3C281.819 132.9 280.752 136.2 278.619 139.2C276.485 142.133 273.619 144.433 270.019 146.1C266.419 147.767 262.585 148.6 258.519 148.6ZM311.695 148.6C311.028 148.6 310.395 148.4 309.795 148C309.261 147.6 308.895 147.1 308.695 146.5L287.995 85.3C287.795 84.7 287.695 84.1333 287.695 83.6C287.695 82.7333 287.961 82.0333 288.495 81.5C289.095 80.9 289.895 80.6 290.895 80.6C291.495 80.6 292.061 80.8 292.595 81.2C293.195 81.6 293.628 82.1 293.895 82.7L311.995 136.2L333.095 82.5C333.695 81.2333 334.695 80.6 336.095 80.6C337.028 80.6 337.761 80.9 338.295 81.5C338.895 82.1 339.195 82.8 339.195 83.6C339.195 84.0667 339.128 84.5 338.995 84.9L314.695 146.6C314.161 147.933 313.161 148.6 311.695 148.6ZM371.199 148.7C365.733 148.7 360.666 147.333 355.999 144.6C351.399 141.8 347.733 137.9 344.999 132.9C342.333 127.833 340.999 122.033 340.999 115.5C340.999 109.833 342.333 104.3 344.999 98.9C347.666 93.4333 351.399 88.9667 356.199 85.5C361.066 82.0333 366.599 80.3 372.799 80.3C378.533 80.3 383.366 81.5 387.299 83.9C391.299 86.2333 394.299 88.9333 396.299 92C398.299 95.0667 399.299 97.5 399.299 99.3C399.299 100.167 398.999 100.867 398.399 101.4C397.866 101.867 397.133 102.1 396.199 102.1C395.533 102.1 394.899 101.933 394.299 101.6C393.766 101.2 393.366 100.667 393.099 100C391.699 96.2667 389.333 93.1333 385.999 90.6C382.733 88 378.333 86.7 372.799 86.7C367.066 86.7 362.299 88.3667 358.499 91.7C354.699 95.0333 351.899 98.9667 350.099 103.5C348.366 107.967 347.499 111.967 347.499 115.5C347.499 120.967 348.566 125.733 350.699 129.8C352.899 133.8 355.799 136.9 359.399 139.1C363.066 141.233 366.999 142.3 371.199 142.3C376.666 142.3 381.366 140.767 385.299 137.7C389.299 134.567 391.999 130.333 393.399 125H390.799C387.399 125 383.966 125.433 380.499 126.3C379.166 126.567 378.399 126.7 378.199 126.7C377.333 126.7 376.599 126.4 375.999 125.8C375.399 125.2 375.099 124.433 375.099 123.5C375.099 122.833 375.266 122.233 375.599 121.7C375.999 121.1 376.566 120.667 377.299 120.4C378.766 119.867 380.799 119.433 383.399 119.1C385.999 118.767 388.566 118.6 391.099 118.6C395.499 118.6 399.166 119.167 402.099 120.3C403.433 120.7 404.099 121.7 404.099 123.3C404.099 124.167 403.799 124.9 403.199 125.5C402.666 126.033 401.999 126.333 401.199 126.4C400.733 126.4 400.233 126.3 399.699 126.1C398.099 132.7 394.799 138.133 389.799 142.4C384.799 146.6 378.599 148.7 371.199 148.7Z" fill="black"/>
</svg>
