<svg width="640" height="200" viewBox="0 0 640 200" fill="none" xmlns="http://www.w3.org/2000/svg">
<path d="M184.443 130.48C183.749 130.48 183.163 130.24 182.683 129.76C182.203 129.227 181.963 128.613 181.963 127.92V81.44H166.843C166.149 81.44 165.536 81.2 165.003 80.72C164.523 80.24 164.283 79.6533 164.283 78.96C164.283 78.2667 164.523 77.68 165.003 77.2C165.536 76.6667 166.149 76.4 166.843 76.4H202.123C202.816 76.4 203.403 76.64 203.883 77.12C204.363 77.6 204.603 78.2133 204.603 78.96C204.603 79.6533 204.363 80.24 203.883 80.72C203.403 81.2 202.816 81.44 202.123 81.44H187.003V127.92C187.003 128.613 186.736 129.227 186.203 129.76C185.723 130.24 185.136 130.48 184.443 130.48ZM222.553 130.48C218.66 130.48 215.193 129.627 212.153 127.92C209.113 126.16 206.766 123.813 205.113 120.88C203.46 117.947 202.633 114.747 202.633 111.28C202.633 107.653 203.38 104.267 204.873 101.12C206.42 97.92 208.553 95.36 211.273 93.44C213.993 91.52 217.113 90.56 220.633 90.56C223.833 90.56 226.553 91.1733 228.793 92.4C231.086 93.6267 232.793 95.0933 233.913 96.8C235.086 98.5067 235.673 100.027 235.673 101.36C235.673 102.32 235.033 103.173 233.753 103.92L208.953 118.08C210.286 120.64 212.1 122.587 214.393 123.92C216.686 125.2 219.38 125.84 222.473 125.84C224.18 125.84 225.966 125.413 227.833 124.56C229.753 123.707 231.273 122.693 232.393 121.52C232.766 120.987 233.3 120.72 233.993 120.72C234.686 120.72 235.246 120.96 235.673 121.44C236.153 121.867 236.393 122.427 236.393 123.12C236.393 123.653 236.18 124.187 235.753 124.72C234.313 126.373 232.34 127.76 229.833 128.88C227.38 129.947 224.953 130.48 222.553 130.48ZM230.713 100.72C229.966 98.9067 228.793 97.5467 227.193 96.64C225.593 95.7333 223.433 95.28 220.713 95.28C218.153 95.28 215.86 96 213.833 97.44C211.806 98.8267 210.206 100.72 209.033 103.12C207.913 105.52 207.326 108.16 207.273 111.04C207.273 112.107 207.326 112.96 207.433 113.6L230.713 100.72ZM260.151 130.48C257.058 130.48 254.151 129.733 251.431 128.24C248.765 126.693 246.631 124.587 245.031 121.92C243.485 119.253 242.711 116.32 242.711 113.12C242.711 109.493 243.538 105.947 245.191 102.48C246.898 98.96 249.138 96.1067 251.911 93.92C254.685 91.68 257.565 90.56 260.551 90.56C263.325 90.56 265.591 91.0133 267.351 91.92C269.165 92.8267 270.898 94.24 272.551 96.16C272.978 96.5867 273.191 97.1467 273.191 97.84C273.191 98.5333 272.951 99.12 272.471 99.6C272.045 100.08 271.485 100.32 270.791 100.32C270.045 100.32 269.431 100.027 268.951 99.44C267.778 98.0533 266.578 97.0133 265.351 96.32C264.125 95.5733 262.578 95.2 260.711 95.2C258.578 95.2 256.498 96.0533 254.471 97.76C252.445 99.4667 250.791 101.707 249.511 104.48C248.231 107.2 247.591 110.027 247.591 112.96C247.591 115.627 248.205 117.947 249.431 119.92C250.711 121.84 252.311 123.307 254.231 124.32C256.205 125.333 258.178 125.84 260.151 125.84C264.738 125.84 268.311 124 270.871 120.32C271.565 119.36 272.311 118.88 273.111 118.88C273.805 118.88 274.391 119.12 274.871 119.6C275.351 120.08 275.591 120.64 275.591 121.28C275.591 121.813 275.325 122.427 274.791 123.12C273.405 125.147 271.405 126.88 268.791 128.32C266.178 129.76 263.298 130.48 260.151 130.48ZM286.425 130.56C285.732 130.56 285.118 130.32 284.585 129.84C284.105 129.307 283.865 128.72 283.865 128.08V78.08C283.865 77.3867 284.105 76.8 284.585 76.32C285.118 75.7867 285.732 75.52 286.425 75.52C287.172 75.52 287.758 75.7867 288.185 76.32C288.665 76.8 288.905 77.3867 288.905 78.08V102.64C290.505 99.3333 292.718 96.4533 295.545 94C298.425 91.5467 301.358 90.32 304.345 90.32C308.292 90.32 311.065 92.5067 312.665 96.88C314.265 101.253 315.065 108.107 315.065 117.44C315.065 122.72 314.985 126.267 314.825 128.08C314.772 128.773 314.532 129.36 314.105 129.84C313.678 130.267 313.118 130.48 312.425 130.48C311.785 130.48 311.198 130.24 310.665 129.76C310.185 129.28 309.945 128.72 309.945 128.08C309.945 127.28 309.972 126.533 310.025 125.84L310.105 118C310.105 108.987 309.518 102.96 308.345 99.92C307.172 96.8267 305.705 95.28 303.945 95.28C301.972 95.28 300.025 96.1067 298.105 97.76C296.185 99.36 294.505 101.173 293.065 103.2C291.678 105.173 290.692 106.8 290.105 108.08C289.305 109.68 288.905 111.973 288.905 114.96V127.92C288.905 128.72 288.665 129.36 288.185 129.84C287.705 130.32 287.118 130.56 286.425 130.56ZM326.916 112.88C326.276 112.88 325.689 112.64 325.156 112.16C324.676 111.68 324.436 111.12 324.436 110.48C324.436 109.84 324.676 109.28 325.156 108.8C325.689 108.32 326.276 108.08 326.916 108.08H346.356C347.049 108.08 347.609 108.32 348.036 108.8C348.516 109.227 348.756 109.787 348.756 110.48C348.756 111.12 348.516 111.68 348.036 112.16C347.609 112.64 347.049 112.88 346.356 112.88H326.916ZM361.823 130.48C361.183 130.533 360.596 130.293 360.063 129.76C359.583 129.173 359.343 128.56 359.343 127.92V78.48C359.343 77.84 359.583 77.28 360.063 76.8C360.596 76.2667 361.21 76 361.903 76C362.596 76 363.183 76.2667 363.663 76.8C364.196 77.28 364.463 77.84 364.463 78.48V125.28L389.183 123.6C389.93 123.547 390.543 123.76 391.023 124.24C391.503 124.72 391.743 125.333 391.743 126.08C391.743 126.72 391.503 127.28 391.023 127.76C390.543 128.24 389.983 128.507 389.343 128.56L361.823 130.48ZM423.935 131.12C423.135 131.12 422.522 130.853 422.095 130.32C421.668 129.84 421.455 129.227 421.455 128.48V126.24C420.015 127.52 418.282 128.56 416.255 129.36C414.228 130.107 412.202 130.48 410.175 130.48C407.295 130.48 404.708 129.76 402.415 128.32C400.122 126.88 398.308 124.853 396.975 122.24C395.695 119.573 395.055 116.56 395.055 113.2C395.055 109.573 395.802 106.027 397.295 102.56C398.842 99.04 401.055 96.16 403.935 93.92C406.868 91.68 410.308 90.56 414.255 90.56C416.708 90.56 418.868 90.88 420.735 91.52C422.602 92.16 424.495 92.9333 426.415 93.84V128.48C426.415 129.227 426.175 129.84 425.695 130.32C425.215 130.853 424.628 131.12 423.935 131.12ZM410.175 125.76C412.255 125.76 414.335 125.28 416.415 124.32C418.495 123.307 420.095 122.24 421.215 121.12L421.535 96.88C420.682 96.5067 419.562 96.16 418.175 95.84C416.842 95.4667 415.588 95.28 414.415 95.28C411.802 95.28 409.402 96.0533 407.215 97.6C405.028 99.1467 403.295 101.28 402.015 104C400.788 106.667 400.175 109.68 400.175 113.04C400.175 116.933 401.108 120.027 402.975 122.32C404.842 124.613 407.242 125.76 410.175 125.76ZM441.345 130.48C440.705 130.48 440.118 130.267 439.585 129.84C439.105 129.36 438.865 128.8 438.865 128.16V77.76C438.865 77.12 439.105 76.5867 439.585 76.16C440.118 75.7333 440.732 75.52 441.425 75.52C442.065 75.52 442.625 75.7333 443.105 76.16C443.585 76.5867 443.825 77.12 443.825 77.76V97.36C445.532 95.3867 447.612 93.8667 450.065 92.8C452.518 91.7333 455.078 91.2 457.745 91.2C461.958 91.2 465.345 92.8 467.905 96C470.465 99.1467 471.745 103.413 471.745 108.8C471.745 115.147 470.278 120.267 467.345 124.16C464.465 128 460.118 129.92 454.305 129.92C452.492 129.92 450.625 129.707 448.705 129.28C446.785 128.8 445.132 128.267 443.745 127.68V128.32C443.745 128.853 443.505 129.36 443.025 129.84C442.545 130.267 441.985 130.48 441.345 130.48ZM453.665 125.12C462.518 125.12 466.945 119.68 466.945 108.8C466.945 104.853 466.092 101.787 464.385 99.6C462.732 97.36 460.492 96.24 457.665 96.24C455.105 96.24 452.758 96.72 450.625 97.68C448.545 98.64 446.892 99.9467 445.665 101.6C444.438 103.253 443.825 105.067 443.825 107.04V123.12C444.838 123.547 446.252 124 448.065 124.48C449.932 124.907 451.798 125.12 453.665 125.12Z" fill="black"/>
</svg>
