<svg width="640" height="200" viewBox="0 0 640 200" fill="none" xmlns="http://www.w3.org/2000/svg">
<path d="M246.823 128.72C239.703 128.72 233.623 127.2 228.583 124.16C223.623 121.04 220.143 117 218.143 112.04C217.663 111.24 217.423 110.44 217.423 109.64C217.423 108.52 217.823 107.6 218.623 106.88C219.423 106.08 220.383 105.68 221.503 105.68C223.503 105.68 224.823 106.72 225.463 108.8C226.823 112.56 229.463 115.64 233.383 118.04C237.383 120.36 241.863 121.52 246.823 121.52C250.743 121.52 254.223 120.84 257.263 119.48C260.383 118.12 262.783 116.28 264.463 113.96C266.223 111.64 267.103 109.04 267.103 106.16C267.103 102.48 265.583 99.28 262.543 96.56C259.503 93.84 254.343 91.48 247.063 89.48C230.343 84.92 221.982 77.48 221.982 67.16C221.982 63.24 223.063 59.76 225.223 56.72C227.463 53.68 230.663 51.28 234.823 49.52C239.063 47.76 243.983 46.88 249.583 46.88C257.503 46.88 263.663 48.4 268.063 51.44C272.463 54.4 274.662 58.4 274.662 63.44C274.662 64.48 274.303 65.4 273.583 66.2C272.863 66.92 271.983 67.28 270.943 67.28C269.983 67.28 269.143 66.96 268.423 66.32C267.783 65.68 267.423 64.92 267.343 64.04C266.943 61 265.103 58.52 261.823 56.6C258.623 54.68 254.423 53.72 249.223 53.72C242.983 53.72 238.143 54.88 234.703 57.2C231.343 59.52 229.663 62.72 229.663 66.8C229.663 70.24 231.223 73.16 234.343 75.56C237.543 77.96 242.423 80.08 248.983 81.92C257.623 84.32 264.063 87.48 268.303 91.4C272.623 95.24 274.783 99.96 274.783 105.56C274.783 109.88 273.503 113.84 270.943 117.44C268.383 120.96 264.943 123.72 260.623 125.72C256.303 127.72 251.703 128.72 246.823 128.72ZM310.633 128.72C309.833 128.72 309.073 128.48 308.353 128C307.713 127.52 307.273 126.92 307.033 126.2L282.193 52.76C281.953 52.04 281.833 51.36 281.833 50.72C281.833 49.68 282.153 48.84 282.793 48.2C283.513 47.48 284.473 47.12 285.673 47.12C286.393 47.12 287.073 47.36 287.713 47.84C288.433 48.32 288.953 48.92 289.273 49.64L310.993 113.84L336.313 49.4C337.033 47.88 338.233 47.12 339.913 47.12C341.033 47.12 341.913 47.48 342.553 48.2C343.273 48.92 343.633 49.76 343.633 50.72C343.633 51.28 343.553 51.8 343.393 52.28L314.233 126.32C313.593 127.92 312.393 128.72 310.633 128.72ZM382.039 128.84C375.479 128.84 369.399 127.2 363.799 123.92C358.279 120.56 353.879 115.88 350.599 109.88C347.399 103.8 345.799 96.84 345.799 89C345.799 82.2 347.399 75.56 350.599 69.08C353.799 62.52 358.279 57.16 364.039 53C369.879 48.84 376.519 46.76 383.959 46.76C390.839 46.76 396.639 48.2 401.359 51.08C406.159 53.88 409.759 57.12 412.159 60.8C414.559 64.48 415.759 67.4 415.759 69.56C415.759 70.6 415.399 71.44 414.679 72.08C414.039 72.64 413.159 72.92 412.039 72.92C411.239 72.92 410.479 72.72 409.759 72.32C409.119 71.84 408.639 71.2 408.319 70.4C406.639 65.92 403.799 62.16 399.799 59.12C395.879 56 390.599 54.44 383.959 54.44C377.079 54.44 371.359 56.44 366.799 60.44C362.239 64.44 358.879 69.16 356.719 74.6C354.639 79.96 353.599 84.76 353.599 89C353.599 95.56 354.879 101.28 357.439 106.16C360.079 110.96 363.559 114.68 367.879 117.32C372.279 119.88 376.999 121.16 382.039 121.16C388.599 121.16 394.239 119.32 398.959 115.64C403.759 111.88 406.999 106.8 408.679 100.4H405.559C401.479 100.4 397.359 100.92 393.199 101.96C391.599 102.28 390.679 102.44 390.439 102.44C389.399 102.44 388.519 102.08 387.799 101.36C387.079 100.64 386.719 99.72 386.719 98.6C386.719 97.8 386.919 97.08 387.319 96.44C387.799 95.72 388.479 95.2 389.359 94.88C391.119 94.24 393.559 93.72 396.679 93.32C399.799 92.92 402.879 92.72 405.919 92.72C411.199 92.72 415.599 93.4 419.119 94.76C420.719 95.24 421.519 96.44 421.519 98.36C421.519 99.4 421.159 100.28 420.439 101C419.799 101.64 418.999 102 418.039 102.08C417.479 102.08 416.879 101.96 416.239 101.72C414.319 109.64 410.359 116.16 404.359 121.28C398.359 126.32 390.919 128.84 382.039 128.84Z" fill="black"/>
</svg>
