<svg width="350" height="150" viewBox="0 0 350 150" fill="none" xmlns="http://www.w3.org/2000/svg">
<path d="M101.323 120.72C94.2025 120.72 88.1225 119.2 83.0825 116.16C78.1225 113.04 74.6425 109 72.6425 104.04C72.1625 103.24 71.9225 102.44 71.9225 101.64C71.9225 100.52 72.3225 99.6 73.1225 98.88C73.9225 98.08 74.8825 97.68 76.0025 97.68C78.0025 97.68 79.3225 98.72 79.9625 100.8C81.3225 104.56 83.9625 107.64 87.8825 110.04C91.8825 112.36 96.3625 113.52 101.323 113.52C105.243 113.52 108.723 112.84 111.763 111.48C114.883 110.12 117.283 108.28 118.963 105.96C120.723 103.64 121.603 101.04 121.603 98.16C121.603 94.48 120.083 91.28 117.043 88.56C114.003 85.84 108.843 83.48 101.563 81.48C84.8425 76.92 76.4825 69.48 76.4825 59.16C76.4825 55.24 77.5625 51.76 79.7225 48.72C81.9625 45.68 85.1625 43.28 89.3225 41.52C93.5625 39.76 98.4825 38.88 104.083 38.88C112.003 38.88 118.163 40.4 122.563 43.44C126.963 46.4 129.162 50.4 129.162 55.44C129.162 56.48 128.803 57.4 128.083 58.2C127.363 58.92 126.483 59.28 125.443 59.28C124.483 59.28 123.643 58.96 122.923 58.32C122.283 57.68 121.923 56.92 121.843 56.04C121.443 53 119.603 50.52 116.323 48.6C113.123 46.68 108.923 45.72 103.723 45.72C97.4825 45.72 92.6425 46.88 89.2025 49.2C85.8425 51.52 84.1625 54.72 84.1625 58.8C84.1625 62.24 85.7225 65.16 88.8425 67.56C92.0425 69.96 96.9225 72.08 103.483 73.92C112.123 76.32 118.563 79.48 122.803 83.4C127.123 87.24 129.283 91.96 129.283 97.56C129.283 101.88 128.003 105.84 125.443 109.44C122.883 112.96 119.443 115.72 115.123 117.72C110.803 119.72 106.203 120.72 101.323 120.72ZM165.133 120.72C164.333 120.72 163.573 120.48 162.853 120C162.213 119.52 161.773 118.92 161.533 118.2L136.693 44.76C136.453 44.04 136.333 43.36 136.333 42.72C136.333 41.68 136.653 40.84 137.293 40.2C138.013 39.48 138.973 39.12 140.173 39.12C140.893 39.12 141.573 39.36 142.213 39.84C142.933 40.32 143.453 40.92 143.773 41.64L165.493 105.84L190.813 41.4C191.533 39.88 192.733 39.12 194.413 39.12C195.533 39.12 196.413 39.48 197.053 40.2C197.773 40.92 198.133 41.76 198.133 42.72C198.133 43.28 198.053 43.8 197.893 44.28L168.733 118.32C168.093 119.92 166.893 120.72 165.133 120.72ZM236.539 120.84C229.979 120.84 223.899 119.2 218.299 115.92C212.779 112.56 208.379 107.88 205.099 101.88C201.899 95.8 200.299 88.84 200.299 81C200.299 74.2 201.899 67.56 205.099 61.08C208.299 54.52 212.779 49.16 218.539 45C224.379 40.84 231.019 38.76 238.459 38.76C245.339 38.76 251.139 40.2 255.859 43.08C260.659 45.88 264.259 49.12 266.659 52.8C269.059 56.48 270.259 59.4 270.259 61.56C270.259 62.6 269.899 63.44 269.179 64.08C268.539 64.64 267.659 64.92 266.539 64.92C265.739 64.92 264.979 64.72 264.259 64.32C263.619 63.84 263.139 63.2 262.819 62.4C261.139 57.92 258.299 54.16 254.299 51.12C250.379 48 245.099 46.44 238.459 46.44C231.579 46.44 225.859 48.44 221.299 52.44C216.739 56.44 213.379 61.16 211.219 66.6C209.139 71.96 208.099 76.76 208.099 81C208.099 87.56 209.379 93.28 211.939 98.16C214.579 102.96 218.059 106.68 222.379 109.32C226.779 111.88 231.499 113.16 236.539 113.16C243.099 113.16 248.739 111.32 253.459 107.64C258.259 103.88 261.499 98.8 263.179 92.4H260.059C255.979 92.4 251.859 92.92 247.699 93.96C246.099 94.28 245.179 94.44 244.939 94.44C243.899 94.44 243.019 94.08 242.299 93.36C241.579 92.64 241.219 91.72 241.219 90.6C241.219 89.8 241.419 89.08 241.819 88.44C242.299 87.72 242.979 87.2 243.859 86.88C245.619 86.24 248.059 85.72 251.179 85.32C254.299 84.92 257.379 84.72 260.419 84.72C265.699 84.72 270.099 85.4 273.619 86.76C275.219 87.24 276.019 88.44 276.019 90.36C276.019 91.4 275.659 92.28 274.939 93C274.299 93.64 273.499 94 272.539 94.08C271.979 94.08 271.379 93.96 270.739 93.72C268.819 101.64 264.859 108.16 258.859 113.28C252.859 118.32 245.419 120.84 236.539 120.84Z" fill="black"/>
</svg>
