<svg width="640" height="200" viewBox="0 0 640 200" fill="none" xmlns="http://www.w3.org/2000/svg">
<path d="M117.414 128.72C116.374 128.72 115.494 128.36 114.774 127.64C114.054 126.84 113.694 125.92 113.694 124.88V55.16H91.0138C89.9738 55.16 89.0538 54.8 88.2538 54.08C87.5338 53.36 87.1738 52.48 87.1738 51.44C87.1738 50.4 87.5338 49.52 88.2538 48.8C89.0538 48 89.9738 47.6 91.0138 47.6H143.934C144.974 47.6 145.854 47.96 146.574 48.68C147.294 49.4 147.654 50.32 147.654 51.44C147.654 52.48 147.294 53.36 146.574 54.08C145.854 54.8 144.974 55.16 143.934 55.16H121.254V124.88C121.254 125.92 120.854 126.84 120.054 127.64C119.334 128.36 118.454 128.72 117.414 128.72ZM174.58 128.72C168.74 128.72 163.54 127.44 158.98 124.88C154.42 122.24 150.9 118.72 148.42 114.32C145.94 109.92 144.7 105.12 144.7 99.92C144.7 94.48 145.82 89.4 148.06 84.68C150.38 79.88 153.58 76.04 157.66 73.16C161.74 70.28 166.42 68.84 171.7 68.84C176.5 68.84 180.58 69.76 183.94 71.6C187.38 73.44 189.94 75.64 191.62 78.2C193.38 80.76 194.26 83.04 194.26 85.04C194.26 86.48 193.3 87.76 191.38 88.88L154.18 110.12C156.18 113.96 158.9 116.88 162.34 118.88C165.78 120.8 169.82 121.76 174.46 121.76C177.02 121.76 179.7 121.12 182.5 119.84C185.38 118.56 187.66 117.04 189.34 115.28C189.9 114.48 190.7 114.08 191.74 114.08C192.78 114.08 193.62 114.44 194.26 115.16C194.98 115.8 195.34 116.64 195.34 117.68C195.34 118.48 195.02 119.28 194.38 120.08C192.22 122.56 189.26 124.64 185.5 126.32C181.82 127.92 178.18 128.72 174.58 128.72ZM186.82 84.08C185.7 81.36 183.94 79.32 181.54 77.96C179.14 76.6 175.9 75.92 171.82 75.92C167.98 75.92 164.54 77 161.5 79.16C158.46 81.24 156.06 84.08 154.3 87.68C152.62 91.28 151.74 95.24 151.66 99.56C151.66 101.16 151.74 102.44 151.9 103.4L186.82 84.08ZM230.977 128.72C226.337 128.72 221.977 127.6 217.897 125.36C213.897 123.04 210.697 119.88 208.297 115.88C205.977 111.88 204.817 107.48 204.817 102.68C204.817 97.24 206.057 91.92 208.537 86.72C211.097 81.44 214.457 77.16 218.617 73.88C222.777 70.52 227.097 68.84 231.577 68.84C235.737 68.84 239.137 69.52 241.777 70.88C244.497 72.24 247.097 74.36 249.577 77.24C250.217 77.88 250.537 78.72 250.537 79.76C250.537 80.8 250.177 81.68 249.457 82.4C248.817 83.12 247.977 83.48 246.937 83.48C245.817 83.48 244.897 83.04 244.177 82.16C242.417 80.08 240.617 78.52 238.777 77.48C236.937 76.36 234.617 75.8 231.817 75.8C228.617 75.8 225.497 77.08 222.457 79.64C219.417 82.2 216.937 85.56 215.017 89.72C213.097 93.8 212.137 98.04 212.137 102.44C212.137 106.44 213.057 109.92 214.897 112.88C216.817 115.76 219.217 117.96 222.097 119.48C225.057 121 228.017 121.76 230.977 121.76C237.857 121.76 243.217 119 247.057 113.48C248.097 112.04 249.217 111.32 250.417 111.32C251.457 111.32 252.337 111.68 253.057 112.4C253.777 113.12 254.137 113.96 254.137 114.92C254.137 115.72 253.737 116.64 252.937 117.68C250.857 120.72 247.857 123.32 243.937 125.48C240.017 127.64 235.697 128.72 230.977 128.72ZM270.388 128.84C269.348 128.84 268.428 128.48 267.628 127.76C266.908 126.96 266.548 126.08 266.548 125.12V50.12C266.548 49.08 266.908 48.2 267.628 47.48C268.428 46.68 269.348 46.28 270.388 46.28C271.508 46.28 272.388 46.68 273.027 47.48C273.748 48.2 274.108 49.08 274.108 50.12V86.96C276.508 82 279.828 77.68 284.068 74C288.388 70.32 292.788 68.48 297.268 68.48C303.188 68.48 307.348 71.76 309.748 78.32C312.148 84.88 313.348 95.16 313.348 109.16C313.348 117.08 313.228 122.4 312.988 125.12C312.908 126.16 312.548 127.04 311.908 127.76C311.268 128.4 310.428 128.72 309.388 128.72C308.428 128.72 307.548 128.36 306.748 127.64C306.028 126.92 305.668 126.08 305.668 125.12C305.668 123.92 305.708 122.8 305.788 121.76L305.908 110C305.908 96.48 305.028 87.44 303.268 82.88C301.508 78.24 299.308 75.92 296.668 75.92C293.708 75.92 290.788 77.16 287.908 79.64C285.028 82.04 282.508 84.76 280.348 87.8C278.268 90.76 276.788 93.2 275.908 95.12C274.708 97.52 274.108 100.96 274.108 105.44V124.88C274.108 126.08 273.748 127.04 273.027 127.76C272.308 128.48 271.428 128.84 270.388 128.84ZM331.123 102.32C330.163 102.32 329.283 101.96 328.483 101.24C327.763 100.52 327.403 99.68 327.403 98.72C327.403 97.76 327.763 96.92 328.483 96.2C329.283 95.48 330.163 95.12 331.123 95.12H360.283C361.323 95.12 362.163 95.48 362.803 96.2C363.523 96.84 363.883 97.68 363.883 98.72C363.883 99.68 363.523 100.52 362.803 101.24C362.163 101.96 361.323 102.32 360.283 102.32H331.123ZM383.485 128.72C382.525 128.8 381.645 128.44 380.845 127.64C380.125 126.76 379.765 125.84 379.765 124.88V50.72C379.765 49.76 380.125 48.92 380.845 48.2C381.645 47.4 382.565 47 383.605 47C384.645 47 385.525 47.4 386.245 48.2C387.045 48.92 387.445 49.76 387.445 50.72V120.92L424.525 118.4C425.645 118.32 426.565 118.64 427.285 119.36C428.005 120.08 428.365 121 428.365 122.12C428.365 123.08 428.005 123.92 427.285 124.64C426.565 125.36 425.725 125.76 424.765 125.84L383.485 128.72ZM476.653 129.68C475.453 129.68 474.533 129.28 473.893 128.48C473.253 127.76 472.933 126.84 472.933 125.72V122.36C470.773 124.28 468.173 125.84 465.133 127.04C462.093 128.16 459.053 128.72 456.013 128.72C451.693 128.72 447.813 127.64 444.373 125.48C440.933 123.32 438.213 120.28 436.213 116.36C434.293 112.36 433.333 107.84 433.333 102.8C433.333 97.36 434.453 92.04 436.693 86.84C439.013 81.56 442.333 77.24 446.653 73.88C451.053 70.52 456.213 68.84 462.133 68.84C465.813 68.84 469.053 69.32 471.853 70.28C474.653 71.24 477.493 72.4 480.373 73.76V125.72C480.373 126.84 480.013 127.76 479.293 128.48C478.573 129.28 477.693 129.68 476.653 129.68ZM456.013 121.64C459.133 121.64 462.253 120.92 465.373 119.48C468.493 117.96 470.893 116.36 472.573 114.68L473.053 78.32C471.773 77.76 470.093 77.24 468.013 76.76C466.013 76.2 464.133 75.92 462.373 75.92C458.453 75.92 454.853 77.08 451.573 79.4C448.293 81.72 445.693 84.92 443.773 89C441.933 93 441.013 97.52 441.013 102.56C441.013 108.4 442.413 113.04 445.213 116.48C448.013 119.92 451.613 121.64 456.013 121.64ZM502.768 128.72C501.808 128.72 500.928 128.4 500.128 127.76C499.408 127.04 499.048 126.2 499.048 125.24V49.64C499.048 48.68 499.408 47.88 500.128 47.24C500.928 46.6 501.848 46.28 502.888 46.28C503.848 46.28 504.688 46.6 505.408 47.24C506.128 47.88 506.488 48.68 506.488 49.64V79.04C509.048 76.08 512.168 73.8 515.848 72.2C519.528 70.6 523.368 69.8 527.368 69.8C533.688 69.8 538.768 72.2 542.608 77C546.448 81.72 548.368 88.12 548.368 96.2C548.368 105.72 546.168 113.4 541.768 119.24C537.448 125 530.928 127.88 522.208 127.88C519.488 127.88 516.688 127.56 513.808 126.92C510.928 126.2 508.448 125.4 506.368 124.52V125.48C506.368 126.28 506.008 127.04 505.288 127.76C504.568 128.4 503.728 128.72 502.768 128.72ZM521.248 120.68C534.528 120.68 541.168 112.52 541.168 96.2C541.168 90.28 539.888 85.68 537.328 82.4C534.848 79.04 531.488 77.36 527.248 77.36C523.408 77.36 519.888 78.08 516.688 79.52C513.568 80.96 511.088 82.92 509.248 85.4C507.408 87.88 506.488 90.6 506.488 93.56V117.68C508.008 118.32 510.128 119 512.848 119.72C515.648 120.36 518.448 120.68 521.248 120.68Z" fill="black"/>
</svg>
