<svg width="350" height="200" viewBox="0 0 350 200" fill="none" xmlns="http://www.w3.org/2000/svg">
<path d="M87.3711 129.438C87.3711 127.445 87.0586 125.688 86.4336 124.164C85.8477 122.602 84.793 121.195 83.2695 119.945C81.7852 118.695 79.7148 117.504 77.0586 116.371C74.4414 115.238 71.1211 114.086 67.0977 112.914C62.8789 111.664 59.0703 110.277 55.6719 108.754C52.2734 107.191 49.3633 105.414 46.9414 103.422C44.5195 101.43 42.6641 99.1445 41.375 96.5664C40.0859 93.9883 39.4414 91.0391 39.4414 87.7188C39.4414 84.3984 40.125 81.332 41.4922 78.5195C42.8594 75.707 44.8125 73.2656 47.3516 71.1953C49.9297 69.0859 52.9961 67.4453 56.5508 66.2734C60.1055 65.1016 64.0703 64.5156 68.4453 64.5156C74.8516 64.5156 80.2812 65.7461 84.7344 68.207C89.2266 70.6289 92.6445 73.8125 94.9883 77.7578C97.332 81.6641 98.5039 85.8438 98.5039 90.2969H87.2539C87.2539 87.0938 86.5703 84.2617 85.2031 81.8008C83.8359 79.3008 81.7656 77.3477 78.9922 75.9414C76.2188 74.4961 72.7031 73.7734 68.4453 73.7734C64.4219 73.7734 61.1016 74.3789 58.4844 75.5898C55.8672 76.8008 53.9141 78.4414 52.625 80.5117C51.375 82.582 50.75 84.9453 50.75 87.6016C50.75 89.3984 51.1211 91.0391 51.8633 92.5234C52.6445 93.9688 53.8359 95.3164 55.4375 96.5664C57.0781 97.8164 59.1484 98.9688 61.6484 100.023C64.1875 101.078 67.2148 102.094 70.7305 103.07C75.5742 104.438 79.7539 105.961 83.2695 107.641C86.7852 109.32 89.6758 111.215 91.9414 113.324C94.2461 115.395 95.9453 117.758 97.0391 120.414C98.1719 123.031 98.7383 126 98.7383 129.32C98.7383 132.797 98.0352 135.941 96.6289 138.754C95.2227 141.566 93.2109 143.969 90.5938 145.961C87.9766 147.953 84.832 149.496 81.1602 150.59C77.5273 151.645 73.4648 152.172 68.9727 152.172C65.0273 152.172 61.1406 151.625 57.3125 150.531C53.5234 149.438 50.0664 147.797 46.9414 145.609C43.8555 143.422 41.375 140.727 39.5 137.523C37.6641 134.281 36.7461 130.531 36.7461 126.273H47.9961C47.9961 129.203 48.5625 131.723 49.6953 133.832C50.8281 135.902 52.3711 137.621 54.3242 138.988C56.3164 140.355 58.5625 141.371 61.0625 142.035C63.6016 142.66 66.2383 142.973 68.9727 142.973C72.918 142.973 76.2578 142.426 78.9922 141.332C81.7266 140.238 83.7969 138.676 85.2031 136.645C86.6484 134.613 87.3711 132.211 87.3711 129.438ZM140.691 138.051L165.828 65.6875H178.074L146.492 151H137.762L140.691 138.051ZM117.195 65.6875L142.098 138.051L145.203 151H136.473L104.949 65.6875H117.195ZM251.785 108.52V139.75C250.73 141.312 249.051 143.07 246.746 145.023C244.441 146.938 241.258 148.617 237.195 150.062C233.172 151.469 227.977 152.172 221.609 152.172C216.414 152.172 211.629 151.273 207.254 149.477C202.918 147.641 199.148 144.984 195.945 141.508C192.781 137.992 190.32 133.734 188.562 128.734C186.844 123.695 185.984 117.992 185.984 111.625V105.004C185.984 98.6367 186.727 92.9531 188.211 87.9531C189.734 82.9531 191.961 78.7148 194.891 75.2383C197.82 71.7227 201.414 69.0664 205.672 67.2695C209.93 65.4336 214.812 64.5156 220.32 64.5156C226.844 64.5156 232.293 65.6484 236.668 67.9141C241.082 70.1406 244.52 73.2266 246.98 77.1719C249.48 81.1172 251.082 85.6094 251.785 90.6484H240.477C239.969 87.5625 238.953 84.75 237.43 82.2109C235.945 79.6719 233.816 77.6406 231.043 76.1172C228.27 74.5547 224.695 73.7734 220.32 73.7734C216.375 73.7734 212.957 74.4961 210.066 75.9414C207.176 77.3867 204.793 79.457 202.918 82.1523C201.043 84.8477 199.637 88.1094 198.699 91.9375C197.801 95.7656 197.352 100.082 197.352 104.887V111.625C197.352 116.547 197.918 120.941 199.051 124.809C200.223 128.676 201.883 131.977 204.031 134.711C206.18 137.406 208.738 139.457 211.707 140.863C214.715 142.27 218.035 142.973 221.668 142.973C225.691 142.973 228.953 142.641 231.453 141.977C233.953 141.273 235.906 140.453 237.312 139.516C238.719 138.539 239.793 137.621 240.535 136.762V117.66H220.789V108.52H251.785Z" fill="black"/>
</svg>
